<svg xmlns="http://www.w3.org/2000/svg"  viewBox="0 0 24 24" width="24px" height="24px"><path d="M 12 2 C 6.486 2 2 6.486 2 12 C 2 17.514 6.486 22 12 22 C 12.553 22 13 21.553 13 21 L 13 17 C 13 16.447 12.553 16 12 16 C 9.794 16 8 14.206 8 12 C 8 9.794 9.794 8 12 8 C 12.553 8 13 7.552 13 7 L 13 3 C 13 2.448 12.553 2 12 2 z M 14 9 C 13.447 9 13 9.448 13 10 L 13 14 C 13 14.553 13.447 15 14 15 L 16 15 L 16 18 C 16 18.553 16.447 19 17 19 L 21 19 C 21.553 19 22 18.553 22 18 L 22 10 C 22 9.448 21.553 9 21 9 L 14 9 z"/></svg>